<?xml version="1.0" encoding="utf-8"?>
<!-- Generator: Adobe Illustrator 23.0.2, SVG Export Plug-In . SVG Version: 6.00 Build 0)  -->
<svg version="1.1"
	 id="svg2" inkscape:version="0.92.3 (2405546, 2018-03-11)" sodipodi:docname="Lincoln_logo.svg" xmlns:cc="http://creativecommons.org/ns#" xmlns:dc="http://purl.org/dc/elements/1.1/" xmlns:inkscape="http://www.inkscape.org/namespaces/inkscape" xmlns:rdf="http://www.w3.org/1999/02/22-rdf-syntax-ns#" xmlns:sodipodi="http://sodipodi.sourceforge.net/DTD/sodipodi-0.dtd" xmlns:svg="http://www.w3.org/2000/svg"
	 xmlns="http://www.w3.org/2000/svg" xmlns:xlink="http://www.w3.org/1999/xlink" x="0px" y="0px" viewBox="0 0 477.25 180.08"
	 style="enable-background:new 0 0 477.25 180.08;" xml:space="preserve">
<style type="text/css">
	.st0{fill-rule:evenodd;clip-rule:evenodd;fill:#FFFFFF;}
</style>
<sodipodi:namedview  bordercolor="#666666" borderopacity="1" fit-margin-bottom="0" fit-margin-left="0" fit-margin-right="0" fit-margin-top="0" gridtolerance="10" guidetolerance="10" id="namedview18" inkscape:current-layer="layer2" inkscape:cx="437.66856" inkscape:cy="74.774522" inkscape:guide-bbox="true" inkscape:object-paths="true" inkscape:pageopacity="0" inkscape:pageshadow="2" inkscape:snap-center="true" inkscape:snap-global="false" inkscape:snap-intersection-paths="true" inkscape:snap-object-midpoints="true" inkscape:window-height="1017" inkscape:window-maximized="1" inkscape:window-width="1920" inkscape:window-x="-8" inkscape:window-y="-8" inkscape:zoom="0.95" objecttolerance="10" pagecolor="#ffffff" showgrid="false" showguides="true" units="in">
	</sodipodi:namedview>
<g id="layer1" transform="translate(32.170391,-2.4340355)" inkscape:groupmode="layer" inkscape:label="Layer 1">
	<g id="g902">
		<path id="path12" inkscape:connector-curvature="0" class="st0" d="M204.39,143.06c-2.82-3.57-7.48-5.57-12.07-5.57
			c-11.23,0-18.65,8.75-18.65,19.83c0,10.25,7,19,18.65,19c5.72,0,10.1-2.48,13.07-6.55l5.72,4.2c-1.49,2.02-7.49,8.55-18.92,8.55
			c-15.9,0-25.71-12.95-25.71-25.2c0-15.14,10.65-26.03,26.05-26.03c6.57,0,13.5,2.41,17.51,7.57L204.39,143.06L204.39,143.06"/>
		<path id="path14" inkscape:connector-curvature="0" class="st0" d="M270.53,176.32c-10.67,0-17.57-8.76-17.57-19.42
			c0-10.67,6.91-19.41,17.57-19.41c10.67,0,17.57,8.75,17.57,19.41C288.1,167.56,281.2,176.32,270.53,176.32z M270.53,182.51
			c14.22,0,24.29-11.15,24.29-25.62c0-14.45-10.07-25.61-24.29-25.61c-14.23,0-24.29,11.16-24.29,25.61
			C246.24,171.36,256.3,182.51,270.53,182.51L270.53,182.51"/>
		<path id="path16" inkscape:connector-curvature="0" class="st0" d="M-32.17,133.78h6.44v42.54h21.81v6.19h-28.25V133.78"/>
		<path id="path18" inkscape:connector-curvature="0" class="st0" d="M34.53,133.78h6.44v48.73h-6.44V133.78"/>
		<path id="path20" inkscape:connector-curvature="0" class="st0" d="M84.22,133.78h8.63l26.72,40.07h0.15v-40.07h6.58v48.73h-8.36
			l-27-40.05h-0.14v40.05h-6.58L84.22,133.78"/>
		<path id="path22" inkscape:connector-curvature="0" class="st0" d="M337.17,133.78h6.44v42.54h21.81v6.19h-28.25V133.78"/>
		<path id="path24" inkscape:connector-curvature="0" class="st0" d="M403.88,133.78h8.44l26.18,40.07h0.13v-40.07h6.44v48.73h-8.19
			l-26.42-40.05h-0.16v40.05h-6.42L403.88,133.78"/>
	</g>
	<path id="path26" inkscape:connector-curvature="0" class="st0" d="M222.12,55.82c-0.06-13.89-0.86-29.58-3.08-44.01
		c0,0-4.62-0.54-10.63-0.63c-0.41-5.65-0.75-8.74-0.75-8.74h-1.49c0,0-0.33,3.09-0.75,8.74c-6.01,0.09-10.63,0.63-10.63,0.63
		c-2.24,14.43-3.03,30.12-3.09,44.01c-4.94,0.57-8.88,1.12-8.88,1.12v1.43c0,0,3.93,0.55,8.88,1.12c0.06,13.89,0.85,29.57,3.09,44
		c0,0,4.62,0.55,10.63,0.64c0.41,5.65,0.75,8.74,0.75,8.74h1.49c0,0,0.33-3.08,0.75-8.74c6.01-0.09,10.63-0.64,10.63-0.64
		c2.22-14.43,3.01-30.11,3.08-44c4.94-0.57,8.88-1.12,8.88-1.12v-1.43C231,56.94,227.06,56.38,222.12,55.82z M215.72,16.07
		c1.94,13.52,2.44,30.5,2.5,39.32c-2.82-0.29-5.72-0.53-8.23-0.65c-0.06-16.33-0.67-29.59-1.25-38.67L215.72,16.07z M198.12,16.07
		h6.97c-0.56,9.08-1.18,22.34-1.24,38.67c-2.51,0.12-5.42,0.36-8.23,0.65C195.68,46.57,196.17,29.59,198.12,16.07z M198.12,99.24
		c-1.95-13.53-2.44-30.5-2.49-39.32c2.81,0.28,5.72,0.53,8.23,0.65c0.06,16.33,0.67,29.58,1.24,38.67H198.12h17.6h-6.97
		c0.58-9.09,1.18-22.34,1.25-38.67c2.51-0.13,5.4-0.37,8.23-0.65c-0.06,8.82-0.56,25.79-2.5,39.32H198.12L198.12,99.24"/>
</g>
<g id="layer2" transform="translate(32.170391,-2.4340355)" inkscape:groupmode="layer" inkscape:label="Layer 2">
</g>
</svg>
