<svg xmlns="http://www.w3.org/2000/svg" viewBox="0 0 325.74 198.66"><defs><style>.cls-1{fill:#676767;opacity:0.8;}</style></defs><title>Asset 10</title><g id="Layer_2" data-name="Layer 2"><g id="concept"><path class="cls-1" d="M325.74,102.83c-14,0-17.51,10.76-17.51,20,0,7.5.75,15.26,1.5,22.76.75,7.76,1.5,15.52,1.5,23.52,0,21.77-13.26,29.53-27.27,29.53h-2v-8.51h3.5c11.26,0,15.51-7.51,15.51-20a198,198,0,0,0-1.5-21.51A188.78,188.78,0,0,1,298,128.1c-.5-21.52,6.5-26.52,16-29v-.5c-9.51-2.5-16.51-7-16-28.52a193.19,193.19,0,0,1,1.5-20.77A184.46,184.46,0,0,0,301,28.52c0-12.51-4.25-20-15.51-20H282V0h2c14,0,27.27,7.76,27.27,29.52,0,8-.75,15.27-1.5,23a227.08,227.08,0,0,0-1.5,22.77c0,9.26,3.5,19.51,17.51,19.51Z"/><path class="cls-1" d="M0,94.82c14,0,17.51-10.25,17.51-19.51A227.08,227.08,0,0,0,16,52.54c-.75-7.75-1.5-15-1.5-23C14.51,7.76,27.77,0,41.78,0h2V8.51h-3.5c-11.26,0-15.51,7.5-15.51,20a184.46,184.46,0,0,0,1.5,20.77,193.19,193.19,0,0,1,1.5,20.77c.5,21.51-6.5,26-16,28.52v.5c9.51,2.5,16.51,7.5,16,29a188.78,188.78,0,0,1-1.5,20.52,198,198,0,0,0-1.5,21.51c0,12.51,4.25,20,15.51,20h3.5v8.51h-2c-14,0-27.27-7.76-27.27-29.53,0-8,.75-15.76,1.5-23.52.75-7.5,1.5-15.26,1.5-22.76,0-9.26-3.5-20-17.51-20Z"/></g></g></svg>