<svg xmlns="http://www.w3.org/2000/svg" viewBox="0 0 19.2 29.13"><title>Asset 1</title><g id="Layer_2" data-name="Layer 2"><g id="concept_2.2_-_promos_with_images_for_each_promo" data-name="concept 2.2 - promos with images for each promo"><path d="M9.6,0A9.62,9.62,0,0,0,0,9.6c0,2.08,1.26,4.76,2.07,6.27L9,28.78a.66.66,0,0,0,.9.26.65.65,0,0,0,.26-.26l7-12.91C18,14.36,19.2,11.68,19.2,9.6A9.61,9.61,0,0,0,9.6,0Zm0,1.32A8.27,8.27,0,0,1,17.88,9.6c0,1.48-1.15,4.24-1.9,5.64L9.6,27.08,3.23,15.24c-.76-1.4-1.91-4.16-1.91-5.64A8.27,8.27,0,0,1,9.6,1.32Zm0,3.32a5,5,0,1,0,5,5A5,5,0,0,0,9.6,4.64ZM9.6,6A3.64,3.64,0,1,1,6,9.6,3.63,3.63,0,0,1,9.6,6Z"/></g></g></svg>