<?xml version="1.0" encoding="utf-8"?>
<!-- Generator: Adobe Illustrator 23.0.2, SVG Export Plug-In . SVG Version: 6.00 Build 0)  -->
<svg version="1.1" id="Layer_1" xmlns="http://www.w3.org/2000/svg" xmlns:xlink="http://www.w3.org/1999/xlink" x="0px" y="0px"
	 viewBox="0 0 19.2 29.13" style="enable-background:new 0 0 19.2 29.13;" xml:space="preserve">
<style type="text/css">
	.st0{fill:#FFFFFF;}
</style>
<title>Asset 1</title>
<g>
	<g id="concept_2.2_-_promos_with_images_for_each_promo">
		<path class="st0" d="M9.6,0C4.3,0.01,0.01,4.3,0,9.6c0,2.08,1.26,4.76,2.07,6.27L9,28.78c0.17,0.32,0.58,0.44,0.9,0.26
			c0,0,0,0,0,0c0.11-0.06,0.2-0.15,0.26-0.26l7-12.91C18,14.36,19.2,11.68,19.2,9.6C19.19,4.3,14.9,0.01,9.6,0z M9.6,1.32
			c4.57-0.01,8.27,3.69,8.28,8.26c0,0.01,0,0.01,0,0.02c0,1.48-1.15,4.24-1.9,5.64L9.6,27.08L3.23,15.24
			c-0.76-1.4-1.91-4.16-1.91-5.64C1.31,5.03,5.01,1.33,9.58,1.32C9.59,1.32,9.59,1.32,9.6,1.32z M9.6,4.64c-2.76,0-5,2.24-5,5
			s2.24,5,5,5s5-2.24,5-5c0,0,0,0,0,0C14.6,6.88,12.36,4.64,9.6,4.64z M9.6,6c2.01-0.02,3.66,1.59,3.68,3.6
			c0.02,2.01-1.59,3.66-3.6,3.68C7.67,13.3,6.02,11.69,6,9.68C6,9.65,6,9.63,6,9.6C6.02,7.62,7.62,6.02,9.6,6z"/>
	</g>
</g>
</svg>
