<svg xmlns="http://www.w3.org/2000/svg" viewBox="0 0 10.45 28.25"><defs><style>.cls-1{stroke:#000;stroke-miterlimit:10;stroke-width:0.5px;}</style></defs><title>Asset 2</title><g id="Layer_2" data-name="Layer 2"><g id="concept_2.2_-_promos_with_images_for_each_promo" data-name="concept 2.2 - promos with images for each promo"><path class="cls-1" d="M10.2,26.45v-5a1.55,1.55,0,0,0-.46-1.06,1.65,1.65,0,0,0-1.16-.49H5.9l-.17-.57a18,18,0,0,1-.84-5.25,17.8,17.8,0,0,1,.85-5.26l.15-.55H8.58A1.59,1.59,0,0,0,10.2,6.76v-5A1.51,1.51,0,0,0,9.74.74,1.67,1.67,0,0,0,8.58.25H7.36l-.15,0A5.9,5.9,0,0,0,5.68.71a5.9,5.9,0,0,0-1.23.74c-3,2.34-4.2,6-4.2,12.67,0,7.89,3,11.49,3.91,12.41.16.16.26.24.29.27a5.9,5.9,0,0,0,1.24.74A5.83,5.83,0,0,0,7.21,28l.24,0H8.58A1.59,1.59,0,0,0,10.2,26.45Zm-1.62.93H7.71A4.68,4.68,0,0,1,5.94,27a4.93,4.93,0,0,1-1.11-.66,1.47,1.47,0,0,1-.2-.18c-.88-.89-3.76-4.36-3.76-12S2.45,3.8,4.83,1.94a5,5,0,0,1,1.1-.67A4.71,4.71,0,0,1,7.71.87h.87a1.07,1.07,0,0,1,.73.31.92.92,0,0,1,.27.63v5a1,1,0,0,1-1,.94H5.42l-.06.23c-.06.23-.14.49-.21.76a18.31,18.31,0,0,0-.87,5.43,18.63,18.63,0,0,0,.86,5.43c.09.29.16.54.22.77l.06.23H8.58a1,1,0,0,1,.72.31.89.89,0,0,1,.28.63v5A1,1,0,0,1,8.58,27.38Z"/></g></g></svg>