<?xml version="1.0" encoding="utf-8"?>
<!-- Generator: Adobe Illustrator 23.0.2, SVG Export Plug-In . SVG Version: 6.00 Build 0)  -->
<svg version="1.1" id="Layer_1" xmlns="http://www.w3.org/2000/svg" xmlns:xlink="http://www.w3.org/1999/xlink" x="0px" y="0px"
	 viewBox="0 0 10.45 28.25" style="enable-background:new 0 0 10.45 28.25;" xml:space="preserve">
<style type="text/css">
	.st0{fill:#FFFFFF;stroke:#FFFFFF;stroke-width:0.5;stroke-miterlimit:10;}
</style>
<title>Asset 2</title>
<g>
	<g id="concept_2.2_-_promos_with_images_for_each_promo">
		<path class="st0" d="M10.2,26.45v-5c-0.01-0.4-0.18-0.78-0.46-1.06c-0.31-0.31-0.72-0.49-1.16-0.49H5.9l-0.17-0.57
			c-0.54-1.7-0.82-3.47-0.84-5.25c0.02-1.79,0.3-3.56,0.85-5.26l0.15-0.55h2.69c0.86,0.02,1.58-0.65,1.62-1.51v-5
			c-0.02-0.39-0.18-0.75-0.46-1.02C9.43,0.43,9.02,0.26,8.58,0.25H7.36H7.21C6.68,0.33,6.17,0.49,5.68,0.71
			c-0.44,0.2-0.85,0.44-1.23,0.74c-3,2.34-4.2,6-4.2,12.67c0,7.89,3,11.49,3.91,12.41c0.16,0.16,0.26,0.24,0.29,0.27
			c0.38,0.3,0.8,0.55,1.24,0.74c0.48,0.22,0.99,0.38,1.52,0.46h0.24h1.13C9.45,28.02,10.18,27.32,10.2,26.45z M8.58,27.38H7.71
			C7.1,27.37,6.5,27.24,5.94,27c-0.4-0.17-0.77-0.39-1.11-0.66c-0.07-0.05-0.14-0.11-0.2-0.18c-0.88-0.89-3.76-4.36-3.76-12
			S2.45,3.8,4.83,1.94c0.34-0.27,0.71-0.5,1.1-0.67c0.56-0.25,1.17-0.38,1.78-0.4h0.87c0.27,0.01,0.54,0.12,0.73,0.31
			c0.17,0.17,0.26,0.39,0.27,0.63v5c-0.03,0.53-0.47,0.94-1,0.94H5.42L5.36,7.98C5.3,8.21,5.22,8.47,5.15,8.74
			c-0.56,1.76-0.86,3.59-0.87,5.43c0.02,1.84,0.31,3.67,0.86,5.43c0.09,0.29,0.16,0.54,0.22,0.77l0.06,0.23h3.16
			c0.27,0,0.53,0.11,0.72,0.31c0.17,0.16,0.28,0.39,0.28,0.63v5C9.5,27.03,9.08,27.39,8.58,27.38z"/>
	</g>
</g>
</svg>
